<?xml version="1.0" encoding="UTF-8"?>
<svg version="1.1" viewBox="0 0 1920 1080" width="1920" height="1080" xmlns="http://www.w3.org/2000/svg">
<path transform="translate(0)" d="m0 0h1920v1080h-1920z" fill="none"/>
<path transform="translate(940,323)" d="m0 0h33l23 3 21 5 18 6 20 9 17 10 14 10 10 8 12 11 9 9 9 11 10 14 9 15 8 16 8 21 6 23 3 18v50l-4 24-6 20-6 16-8 17-11 18-13 17-11 12-14 14-17 13-16 10-21 11-24 9-21 5-20 3h-42l-21-3-23-6-19-7-17-8-15-9-17-12-10-9-8-7-8-8-9-11-10-13-9-15-8-15-8-20-7-24-4-26v-42l4-25 7-25 9-22 10-18 10-15 8-10 9-10 7-8 11-10 16-12 19-12 23-11 24-8 23-5z" fill="#FEFEFE"/>
<path transform="translate(944,385)" d="m0 0h26l24 4 18 6 21 10 16 11 10 9 7 6 9 11 9 12 9 16 6 15 5 17 3 19v30l-3 18-5 17-7 17-8 14-8 11-12 14-12 11-16 11-12 7-19 8-20 5-14 2h-29l-23-4-21-7-21-11-14-10-12-11-9-9-10-13-11-19-7-17-4-14-3-15-1-11v-19l2-17 5-20 8-20 11-19 13-16 13-13 16-12 18-10 15-6 13-4 15-3z" fill="#040503"/>
<path transform="translate(940,323)" d="m0 0h33l23 3 21 5 18 6 20 9 17 10 14 10 10 8 12 11 9 9 9 11 10 14 9 15 8 16 8 21 6 23 3 18v50l-4 24-6 20-6 16-8 17-11 18-13 17-11 12-14 14-17 13-16 10-21 11-24 9-21 5-20 3h-42l-21-3-23-6-19-7-17-8-15-9-17-12-10-9-8-7-8-8-9-11-10-13-9-15-8-15-8-20-7-24-4-26v-42l4-25 7-25 9-22 10-18 10-15 8-10 9-10 7-8 11-10 16-12 19-12 23-11 24-8 23-5zm11 14-22 2-25 5-21 7-25 12-17 11-14 11-13 12-12 13-13 18-12 21-8 19-6 19-5 26-1 13v23l2 19 4 19 5 17 9 21 8 15 8 12 10 13 11 12 11 11 17 13 14 9 19 10 18 7 23 6 18 3 12 1h22l25-3 17-4 21-7 25-12 14-9 12-9 10-9 8-7 10-11 12-16 9-15 8-15 9-24 6-25 2-16v-35l-3-22-6-23-7-18-8-16-7-12-10-14-11-13-17-17-17-13-15-9-16-8-14-6-20-6-20-4-23-2z" fill="#040503"/>
<path transform="translate(850,438)" d="m0 0h141l16 3 16 8 10 9 7 8 7 14 3 13v15l-4 15-6 12-9 11-12 9-11 5-10 3 14 18 12 16 12 15 12 16 7 9-1 2h-37l-7-8-15-20-14-18-10-13-14-18-12-16-14-18-12-16-1-3h38l7 8 10 14h19l10-3 8-6 5-8 2-4v-18l-5-10-5-5-8-5-7-2-119-1-9-11-12-16z" fill="#FEFEFE"/>
<path transform="translate(888,562)" d="m0 0h38l11 14 13 17 14 18 12 16 8 10-1 2h-37l-8-9-12-16-14-18-12-16-10-13z" fill="#FEFEFE"/>
<path transform="translate(809,410)" d="m0 0 4 2 8 24 4-4 5-7 5 2 2 3-14 19-6 9-4 7h-4l-4 8 1 4 1 3-3 7-3 12-9 3-4 2-1 3 12 2-2 11-27-5-6-2 2-13 3-11 5-5h8l5 4 1 4 12-4v-2l-18-18-4-3 1-7 3-6 23 1 10 1-9-25-8 10-4-2-3-3 10-13z" fill="#040503"/>
<path transform="translate(851,607)" d="m0 0h37l5 5 13 17 6 8v2h-38l-7-8-12-16-4-5z" fill="#FEFEFE"/>
<path transform="translate(784,523)" d="m0 0h8l4 4 1 3v25l-33 1-1-1v-25l3-5 2-1h7l3 2v2h2l2-4z" fill="#040503"/>
<path transform="translate(1103,610)" d="m0 0 8 1 7 4 4 5 1 2v8l-4 8-5 5-4 2h-7l-8-4-5-6-1-2v-7l5-10 6-5z" fill="#040503"/>
<path transform="translate(950,343)" d="m0 0h5l1 1 2 23v10h-10l-13-13-2-1 1 3v13h-9l-3-28v-5l10-1 14 14v-15z" fill="#040503"/>
<path transform="translate(812,607)" d="m0 0h3l10 17v9l-6 5h-6l-3-1-7 11-4-4-2-6 6-10-2-2-7 4h-3l-4-8 13-8z" fill="#040503"/>
<path transform="translate(991,693)" d="m0 0h6l5 3 2 4-1 7-2 5 7 9-2 2-9 1-7-9h-3l1 11-3 1h-7l-5-26v-4l13-3z" fill="#040503"/>
<path transform="translate(898,352)" d="m0 0h5l20 26v2l-10 3-2-4-9 3h-3v6l-10 3v-23l1-13z" fill="#040503"/>
<path transform="translate(1129,484)" d="m0 0h7l5 4 4 11-1 9-5 5h-3l-1-10 1-1v-6h-3l-1 13-3 6-4 2h-7l-5-4-3-7-1-10 2-6 5-4 3 1 1 9-2 2v8h3l1-3 1-13 4-5z" fill="#040503"/>
<path transform="translate(1040,363)" d="m0 0 5 2 4 3-2 5-8 14 1 6 7 1 4-5 8-13 2-1 8 5-5 10-7 10-5 4h-9l-8-4-7-8v-8l4-8z" fill="#040503"/>
<path transform="translate(1122,522)" d="m0 0h26v10l-5 1h-17l-3 1-1 7v2l5 1 20 1v10h-25l-5-3-3-5-1-5v-7l2-7 5-5z" fill="#040503"/>
<path transform="translate(881,678)" d="m0 0 6 2 5 3-2 22-1 9-2 2-8-4v-5l-8-4-6 2-7-4 6-7 7-7 8-7z" fill="#040503"/>
<path transform="translate(1041,673)" d="m0 0h3l2 6-12 7h-2l1 3 5-1 7-4h2l2 4v3l-11 6 1 3 6-2 8-4 3 1 2 5-22 12h-3l-13-25v-3z" fill="#040503"/>
<path transform="translate(835,640)" d="m0 0 7 6 2 4-12 22-3 6h-2l-6-8 1-5-7-6-4 1-5-6v-2z" fill="#040503"/>
<path transform="translate(903,688)" d="m0 0 16 4 10 3-2 7-10-2-7-2v4l13 4-1 6-9-1-6-2-1 5 10 2 7 2-2 7-11-2-14-4-1-4 7-25z" fill="#040503"/>
<path transform="translate(1124,444)" d="m0 0 2 1 12 28-3 3-5 1-4-8-5 1-16 7h-3l-3-7v-3l20-9h2l-4-11z" fill="#040503"/>
<path transform="translate(852,658)" d="m0 0 4 2 13 10 3 2-2 5-4 1-9-7-3 1v3l8 6-2 5h-4l-6-5h-3l-5 7-5-2-3-3 2-5 12-15z" fill="#040503"/>
<path transform="translate(839,382)" d="m0 0 3 1 10 14 4 4 11-8 4 1 3 5-10 8-11 8-3-1-13-18-5-7 5-5z" fill="#040503"/>
<path transform="translate(1101,411)" d="m0 0 5 5 2 4-11 9-8 7-8 1-6-4-5-6-1-2v-7l3-5 4 1 4 6-1 5 4 1 11-9z" fill="#040503"/>
<path transform="translate(999,349)" d="m0 0 11 2-4 20-3 7-5 4h-9l-7-3-4-4-1-5 2-4 8 2 2 5h4l4-15z" fill="#040503"/>
<path transform="translate(1052,665)" d="m0 0 3 1 11 14 2 2 11-9 3 1 3 5-9 8-10 8-3-1-10-13-7-9 2-4z" fill="#040503"/>
<path transform="translate(1073,646)" d="m0 0 8 6 7 7 4 1 9-10 4 2 2 4-7 7-7 8-2 3-4-2-13-12-7-6 2-4z" fill="#040503"/>
<path transform="translate(932,696)" d="m0 0h9l1 2-2 22h9l7 1-1 8-26-2 2-28z" fill="#040503"/>
<path transform="translate(823,396)" d="m0 0 4 2 16 16 4 5-2 4-4 4-4-2-7-8-13-13 2-4z" fill="#040503"/>
<path transform="translate(1020,355)" d="m0 0 9 3 1 2-11 28-1 2-10-3 3-10 8-21z" fill="#040503"/>
<path transform="translate(1113,428)" d="m0 0h2l5 9-10 7-17 11h-2l-5-9 10-7 16-10z" fill="#040503"/>
<path transform="translate(870,363)" d="m0 0 3 3 13 25v3l-6 3-4-1-14-27 3-3z" fill="#040503"/>
<path transform="translate(1012,687)" d="m0 0h3l10 27v2l-10 3-10-29z" fill="#040503"/>
<path transform="translate(1101,620)" d="m0 0h6l6 4 2 3-1 6-4 3-6-1-6-5-1-5z" fill="#FEFEFE"/>
<path transform="translate(771,535)" d="m0 0h5l1 9-1 1h-5l-1-1v-8z" fill="#FEFEFE"/>
<path transform="translate(785,533)" d="m0 0 4 1v10l-5 1-1-1v-9z" fill="#FEFEFE"/>
<path transform="translate(776,495)" d="m0 0 5 1-1 9h-5l-1-1v-6z" fill="#FEFEFE"/>
<path transform="translate(811,619)" d="m0 0h3l3 5-1 4-3 1-3-3-2-5z" fill="#FEFEFE"/>
<path transform="translate(986,701)" d="m0 0h7l1 4-2 2-7 1-1-6z" fill="#FEFEFE"/>
<path transform="translate(898,363)" d="m0 0h2l5 7v3l-6 2-1-3z" fill="#FEFEFE"/>
<path transform="translate(789,461)" d="m0 0 12 2-3 7-8-6z" fill="#FEFEFE"/>
<path transform="translate(881,689)" d="m0 0h2l-2 11-6-3z" fill="#FEFEFE"/>
<path transform="translate(832,650)" d="m0 0 1 2-5 8h-2l-3-5z" fill="#FEFEFE"/>
</svg>
